<?xml version="1.0" encoding="UTF-8"?>
<svg id="Capa_2" data-name="Capa 2" xmlns="http://www.w3.org/2000/svg" viewBox="0 0 39.17 39.17">
  <defs>
    <style>
      .cls-1 {
        fill: #1a2b4a;
      }
    </style>
  </defs>
  <g id="Capa_1-2" data-name="Capa 1">
    <g>
      <path class="cls-1" d="M19.58,3.53c5.23,0,5.85.02,7.91.11,2.13.1,4.33.58,5.89,2.14s2.04,3.75,2.14,5.89c.09,2.06.11,2.68.11,7.91s-.02,5.85-.11,7.91c-.1,2.12-.59,4.34-2.14,5.89s-3.75,2.04-5.89,2.14c-2.06.09-2.68.11-7.91.11s-5.85-.02-7.91-.11c-2.11-.1-4.36-.61-5.89-2.14-1.56-1.56-2.04-3.76-2.14-5.89-.09-2.06-.11-2.68-.11-7.91s.02-5.85.11-7.91c.1-2.11.6-4.35,2.14-5.89s3.75-2.04,5.89-2.14c2.06-.09,2.68-.11,7.91-.11M19.58,0c-5.32,0-5.99.02-8.07.12-3.03.14-6.03.98-8.22,3.17C1.09,5.48.26,8.48.12,11.51c-.09,2.09-.12,2.76-.12,8.07s.02,5.99.12,8.07c.14,3.02.98,6.04,3.17,8.22,2.19,2.19,5.2,3.03,8.22,3.17,2.09.09,2.76.12,8.07.12s5.99-.02,8.07-.12c3.03-.14,6.03-.98,8.22-3.17s3.03-5.2,3.17-8.22c.09-2.09.12-2.76.12-8.07s-.02-5.99-.12-8.07c-.14-3.03-.98-6.03-3.17-8.22C33.69,1.09,30.67.25,27.66.12c-2.09-.09-2.76-.12-8.07-.12Z"/>
      <path class="cls-1" d="M19.58,9.53c-5.55,0-10.06,4.5-10.06,10.06s4.5,10.06,10.06,10.06,10.06-4.5,10.06-10.06-4.5-10.06-10.06-10.06ZM19.58,26.11c-3.6,0-6.53-2.92-6.53-6.53s2.92-6.53,6.53-6.53,6.53,2.92,6.53,6.53-2.92,6.53-6.53,6.53Z"/>
      <path class="cls-1" d="M30.04,6.78c1.3,0,2.35,1.05,2.35,2.35s-1.05,2.35-2.35,2.35-2.35-1.05-2.35-2.35,1.05-2.35,2.35-2.35Z"/>
    </g>
  </g>
</svg>