<?xml version="1.0" encoding="UTF-8"?>
<svg id="Capa_2" data-name="Capa 2" xmlns="http://www.w3.org/2000/svg" viewBox="0 0 238.46 224.43">
  <defs>
    <style>
      .cls-1 {
        fill: #0e294d;
      }
    </style>
  </defs>
  <g id="Capa_1-2" data-name="Capa 1">
    <path class="cls-1" d="M238.46,84.16V28.05h-21.04v-14.03h14.03V0h-42.08v14.03h14.03v14.03H42.08v-14.03h14.03V0H14.03v14.03h14.03v14.03H0v56.11h28.05v28.05H0v56.11h28.05v56.11h14.03v-56.11h49.49l-12.62,42.08h-15.82v14.03h112.21v-14.03h-15.82l-12.62-42.08h56.5v56.11h14.03v-56.11h21.04v-56.11h-21.04v-28.05h21.04ZM224.43,70.13h-32.16l-28.05-28.05h60.22v28.05ZM94.08,70.13l-28.05-28.05h78.35l28.05,28.05h-78.35ZM14.03,42.08h32.16l28.05,28.05H14.03v-28.05ZM14.03,126.24h32.16l28.05,28.05H14.03v-28.05ZM93.59,210.4l4.21-14.03h42.87l4.21,14.03h-51.28ZM102,182.35l8.42-28.05h17.62l8.42,28.05h-34.45ZM138.47,140.27h-38.49l-4.21,14.03h-1.7l-28.05-28.05h78.35l28.05,28.05h-29.75l-4.21-14.03ZM224.43,154.3h-32.16l-28.05-28.05h60.22v28.05ZM203.39,112.21H42.08v-28.05h161.31v28.05Z"/>
  </g>
</svg>