<?xml version="1.0" encoding="UTF-8"?>
<svg xmlns="http://www.w3.org/2000/svg" xmlns:xlink="http://www.w3.org/1999/xlink" viewBox="0 0 1082.3 409.46">
  <defs>
    <style>
      .cls-1 {
        fill: none;
      }

      .cls-2 {
        isolation: isolate;
      }

      .cls-3 {
        fill: #0e294d;
        mix-blend-mode: multiply;
        opacity: .12;
      }

      .cls-4 {
        clip-path: url(#clippath);
      }
    </style>
    <clipPath id="clippath">
      <rect class="cls-1" x="336.42" y="-336.42" width="409.46" height="1082.3" transform="translate(336.42 745.88) rotate(-90)"/>
    </clipPath>
  </defs>
  <g class="cls-2">
    <g id="Capa_2" data-name="Capa 2">
      <g id="Capa_1-2" data-name="Capa 1">
        <g class="cls-4">
          <path class="cls-3" d="M1187.82-1205.02c189.45,0,319.54,59.35,421.34,178.05,101.8,115.95,161.15,294.18,161.15,508.99V409.42s-1011.19.05-1011.19.05L291.9-57.9l274.38-274.38L899.32-.53h531.6s0-472.24,0-472.24c0-197.9-110.25-316.6-274.16-316.6-192.39,0-291.24,141.3-291.24,328v162.82l-340.12-340.32c-95.37-87.83-139.1-105.29-205.62-105.29-149.76,0-237.41,110.25-237.41,291.24V-.53s409.95,409.95,409.95,409.95H-251.31s0-904.79,0-904.79c0-217.74,53.66-384.41,147-489.14,99.04-110.25,220.5-161.15,378.89-161.15,80.67,0,150.12,19.48,208.74,54.57.18,0,.18.18.37.18,85.63,42.45,171.99,141.3,222.89,206.72,77.91-192.94,253.58-320.83,481.24-320.83Z"/>
        </g>
      </g>
    </g>
  </g>
</svg>