<?xml version="1.0" encoding="UTF-8"?>
<svg xmlns="http://www.w3.org/2000/svg" xmlns:xlink="http://www.w3.org/1999/xlink" viewBox="0 0 409.18 1081.55">
  <defs>
    <style>
      .cls-1 {
        fill: none;
      }

      .cls-2 {
        isolation: isolate;
      }

      .cls-3 {
        fill: #0e294d;
        mix-blend-mode: multiply;
        opacity: .12;
      }

      .cls-4 {
        clip-path: url(#clippath);
      }
    </style>
    <clipPath id="clippath">
      <rect class="cls-1" x="0" y="0" width="409.18" height="1081.55"/>
    </clipPath>
  </defs>
  <g class="cls-2">
    <g id="Capa_2" data-name="Capa 2">
      <g id="Capa_1-2" data-name="Capa 1">
        <g class="cls-4">
          <path class="cls-3" d="M1613.36,1187c0,189.32-59.31,319.32-177.93,421.05-115.87,101.73-293.98,161.04-508.64,161.04H.05S0,758.59,0,758.59l467.04-466.89,274.19,274.19-331.52,332.81v531.24s471.91,0,471.91,0c197.76,0,316.38-110.17,316.38-273.97,0-192.25-141.21-291.04-327.77-291.04h-162.71l340.09-339.89c87.77-95.3,105.22-139,105.22-205.47,0-149.65-110.17-237.24-291.04-237.24h-452.08S.05,491.99.05,491.99V-251.14s904.16,0,904.16,0c217.59,0,384.14,53.62,488.81,146.9,110.17,98.97,161.04,220.35,161.04,378.63,0,80.61-19.46,150.02-54.54,208.6,0,.18-.18.18-.18.37-42.42,85.57-141.21,171.87-206.58,222.74,192.8,77.86,320.61,253.4,320.61,480.91Z"/>
        </g>
      </g>
    </g>
  </g>
</svg>